# Blender v2.81 (sub 16) OBJ File: 'TLK_Enviornment.blend'
# www.blender.org
mtllib Body.mtl
o Body_Cylinder
v 0.433013 0.000000 -0.250000
v 0.433013 2.000000 -0.250000
v 0.433013 0.000000 0.250000
v 0.433013 2.000000 0.250000
v 0.647174 1.749789 0.150936
v 0.647174 1.464629 0.150936
v 0.647174 1.749789 -0.150936
v 0.647174 1.464629 -0.150936
v 0.433013 1.843368 -0.250000
v 0.433013 1.843368 0.250000
v 0.757891 1.371050 0.250000
v 0.757891 1.371050 -0.250000
v 0.433013 1.371050 -0.250000
v 0.433013 1.371050 0.250000
v 0.757891 1.843368 0.250000
v 0.757891 1.843368 -0.250000
v 0.861255 1.749789 -0.150936
v 0.861255 1.464629 -0.150936
v 0.861255 1.749789 0.150936
v 0.861255 1.464629 0.150936
v 0.000000 0.000000 -0.500000
v 0.000000 2.000000 -0.500000
v -0.433013 0.000000 -0.250000
v -0.433013 2.000000 -0.250000
v -0.433013 0.000000 0.250000
v -0.433013 2.000000 0.250000
v 0.000000 0.000000 0.500000
v 0.000000 2.000000 0.500000
v -0.647174 1.749789 0.150936
v -0.647174 1.464629 0.150936
v -0.647174 1.749789 -0.150936
v -0.647174 1.464629 -0.150936
v 0.000000 1.843368 -0.500000
v -0.433013 1.843368 -0.250000
v -0.433013 1.843368 0.250000
v 0.000000 1.843368 0.500000
v -0.757891 1.371050 0.250000
v -0.757891 1.371050 -0.250000
v -0.433013 1.371050 -0.250000
v -0.433013 1.371050 0.250000
v 0.000000 1.371050 0.500000
v -0.757891 1.843368 0.250000
v -0.757891 1.843368 -0.250000
v 0.000000 1.371050 -0.500000
v -0.861255 1.749789 -0.150936
v -0.861255 1.464629 -0.150936
v -0.861255 1.749789 0.150936
v -0.861255 1.464629 0.150936
vt 1.000000 0.960842
vt 1.000000 1.000000
vt 0.833333 1.000000
vt 0.833333 0.960842
vt 0.666667 1.000000
vt 0.666667 0.960842
vt 0.500000 1.000000
vt 0.500000 0.960842
vt 1.000000 0.500000
vt 0.833333 0.500000
vt 0.666667 0.500000
vt 0.500000 0.500000
vt 0.833333 0.960842
vt 0.666667 0.960842
vt 0.666667 0.960842
vt 0.833333 0.960842
vt 0.666667 0.842762
vt 0.666667 0.842762
vt 0.833333 0.842762
vt 0.833333 0.842762
vt 0.833333 0.960842
vt 0.833333 0.842762
vt 0.666667 0.842762
vt 0.500000 0.842762
vt 0.833333 0.842762
vt 1.000000 0.842762
vt 0.666667 0.960842
vt 0.666667 0.842762
vt 0.833333 0.960842
vt 0.833333 1.000000
vt 0.666667 0.960842
vt 0.666667 1.000000
vt 0.666667 0.500000
vt 0.833333 0.500000
vt 0.833333 0.960842
vt 0.833333 0.960842
vt 0.666667 0.960842
vt 0.666667 0.960842
vt 0.666667 0.842762
vt 0.666667 0.842762
vt 0.833333 0.842762
vt 0.833333 0.842762
vt 0.833333 0.842762
vt 0.833333 0.960842
vt 0.666667 0.842762
vt 0.833333 0.842762
vt 0.666667 0.842762
vt 0.666667 0.960842
vn 0.5000 0.0000 -0.8660
vn 1.0000 0.0000 0.0000
vn 0.5000 0.0000 0.8660
vn 0.0000 -1.0000 0.0000
vn -0.6455 0.7637 0.0000
vn -0.6668 0.0000 0.7452
vn 0.0000 1.0000 0.0000
vn -0.6455 -0.7637 0.0000
vn 0.6919 0.0000 -0.7220
vn 0.4198 0.0000 0.9076
vn 0.4198 0.0000 -0.9076
vn 0.4004 -0.9163 0.0000
vn 0.4004 0.9163 0.0000
vn -0.6668 0.0000 -0.7452
vn 0.6711 0.7413 0.0000
vn 0.6919 0.0000 0.7220
vn 0.6711 -0.7413 0.0000
vn -0.5000 0.0000 -0.8660
vn -1.0000 0.0000 0.0000
vn -0.5000 0.0000 0.8660
vn 0.6455 0.7637 0.0000
vn 0.6668 0.0000 0.7452
vn 0.6455 -0.7637 0.0000
vn -0.6919 0.0000 -0.7220
vn -0.4198 0.0000 0.9076
vn -0.4198 0.0000 -0.9076
vn -0.4004 -0.9163 0.0000
vn -0.4004 0.9163 0.0000
vn 0.6668 0.0000 -0.7452
vn -0.6711 0.7413 0.0000
vn -0.6919 0.0000 0.7220
vn -0.6711 -0.7413 0.0000
usemtl None
s off
f 33/1/1 22/2/1 2/3/1 9/4/1
f 9/4/2 2/3/2 4/5/2 10/6/2
f 10/6/3 4/5/3 28/7/3 36/8/3
f 21/9/4 1/10/4 3/11/4 27/12/4
f 7/13/5 5/14/5 15/15/5 16/16/5
f 5/14/6 6/17/6 11/18/6 15/15/6
f 2/3/7 22/2/7 28/7/7 4/5/7
f 6/17/8 8/19/8 12/20/8 11/18/8
f 12/20/9 16/16/9 17/21/9 18/22/9
f 10/6/10 14/23/10 6/17/10 5/14/10
f 14/23/3 10/6/3 36/8/3 41/24/3
f 13/25/11 9/4/11 7/13/11 8/19/11
f 44/26/1 33/1/1 9/4/1 13/25/1
f 21/9/1 44/26/1 13/25/1 1/10/1
f 1/10/2 13/25/2 14/23/2 3/11/2
f 3/11/3 14/23/3 41/24/3 27/12/3
f 14/23/12 13/25/12 8/19/12 6/17/12
f 9/4/13 10/6/13 5/14/13 7/13/13
f 8/19/14 7/13/14 16/16/14 12/20/14
f 18/22/2 17/21/2 19/27/2 20/28/2
f 16/16/15 15/15/15 19/27/15 17/21/15
f 15/15/16 11/18/16 20/28/16 19/27/16
f 11/18/17 12/20/17 18/22/17 20/28/17
f 33/1/18 34/29/18 24/30/18 22/2/18
f 34/29/19 35/31/19 26/32/19 24/30/19
f 35/31/20 36/8/20 28/7/20 26/32/20
f 21/9/4 27/12/4 25/33/4 23/34/4
f 31/35/21 43/36/21 42/37/21 29/38/21
f 29/38/22 42/37/22 37/39/22 30/40/22
f 24/30/7 26/32/7 28/7/7 22/2/7
f 30/40/23 37/39/23 38/41/23 32/42/23
f 38/41/24 46/43/24 45/44/24 43/36/24
f 35/31/25 29/38/25 30/40/25 40/45/25
f 40/45/20 41/24/20 36/8/20 35/31/20
f 39/46/26 32/42/26 31/35/26 34/29/26
f 44/26/18 39/46/18 34/29/18 33/1/18
f 21/9/18 23/34/18 39/46/18 44/26/18
f 23/34/19 25/33/19 40/45/19 39/46/19
f 25/33/20 27/12/20 41/24/20 40/45/20
f 40/45/27 30/40/27 32/42/27 39/46/27
f 34/29/28 31/35/28 29/38/28 35/31/28
f 32/42/29 38/41/29 43/36/29 31/35/29
f 46/43/19 48/47/19 47/48/19 45/44/19
f 43/36/30 45/44/30 47/48/30 42/37/30
f 42/37/31 47/48/31 48/47/31 37/39/31
f 37/39/32 48/47/32 46/43/32 38/41/32
