# Blender v2.81 (sub 16) OBJ File: 'TLK_Enviornment.blend'
# www.blender.org
mtllib Turret.mtl
o Howsing_Cube.008
v -1.000000 -1.000000 1.000000
v -1.000000 1.000000 1.000000
v -1.000000 -1.000000 -1.000000
v -1.000000 1.000000 -1.000000
v 1.000000 -1.000000 1.000000
v 1.000000 1.000000 1.000000
v 1.000000 -1.000000 -1.000000
v 1.000000 1.000000 -1.000000
v 0.155930 -1.000000 -1.000000
v 0.155930 1.000000 -1.000000
v 0.155930 -1.000000 1.000000
v 0.155930 1.000000 1.000000
v -0.154417 -1.000000 -1.000000
v -0.154417 1.000000 1.000000
v -0.154417 1.000000 -1.000000
v -0.154417 -1.000000 1.000000
v -1.000000 0.166644 1.000000
v -1.000000 0.166644 -1.000000
v 1.000000 0.166644 -1.000000
v 1.000000 0.166644 1.000000
v 0.155930 0.166644 1.000000
v 0.155930 0.166644 -1.000000
v -0.154417 0.166644 -1.000000
v -0.154417 0.166644 1.000000
v -1.000000 -0.162510 -1.000000
v 1.000000 -0.162510 -1.000000
v 1.000000 -0.162510 1.000000
v 0.155930 -0.162510 1.000000
v 0.155930 -0.162510 -1.000000
v -0.154417 -0.162510 -1.000000
v -0.154417 -0.162510 1.000000
v -1.000000 -0.162510 1.000000
v -1.000000 -1.000000 0.176435
v -1.000000 1.000000 0.176435
v 1.000000 -1.000000 0.176435
v 1.000000 1.000000 0.176435
v 0.155930 1.000000 0.176435
v 0.155930 -1.000000 0.176435
v -0.154417 -1.000000 0.176435
v -0.154417 1.000000 0.176435
v 1.000000 0.166644 0.176435
v -1.000000 0.166644 0.176435
v -1.000000 -0.162510 0.176435
v 1.000000 -0.162510 0.176435
v -1.000000 1.000000 -0.176757
v 1.000000 -1.000000 -0.176757
v -1.000000 0.166644 -0.176757
v -1.000000 -0.162510 -0.176757
v -1.000000 -1.000000 -0.176757
v 1.000000 1.000000 -0.176757
v 0.155930 1.000000 -0.176757
v 0.155930 -1.000000 -0.176757
v -0.154417 -1.000000 -0.176757
v -0.154417 1.000000 -0.176757
v 1.000000 0.166644 -0.176757
v 1.000000 -0.162510 -0.176757
v -0.154417 0.166644 -1.222342
v 0.155930 0.166644 -1.222342
v 0.155930 -0.162510 -1.222342
v -0.154417 -0.162510 -1.222342
v -0.154417 0.166644 -1.465533
v 0.155930 0.166644 -1.465533
v 0.155930 -0.162510 -1.465533
v -0.154417 -0.162510 -1.465533
v -0.154417 0.459931 -1.222342
v 0.155930 0.459931 -1.222342
v -0.154417 0.459931 -1.465533
v 0.155930 0.459931 -1.465533
v -0.154417 -0.164988 -1.000000
v 0.155930 -0.164988 -1.000000
v -0.154417 -0.164988 -1.222342
v 0.155930 -0.164988 -1.222342
v -0.154417 -0.164988 -1.465533
v 0.155930 -0.164988 -1.465533
v -0.154417 -0.502031 -1.222342
v 0.155930 -0.502031 -1.222342
v -0.154417 -0.502031 -1.465533
v 0.155930 -0.502031 -1.465533
v -1.340663 0.166644 0.176435
v -1.340663 -0.162510 0.176435
v -1.340663 0.166644 -0.176757
v -1.340663 -0.162510 -0.176757
v -1.678889 0.166644 0.176435
v -1.678889 -0.162510 0.176435
v -1.678889 0.166644 -0.176757
v -1.678889 -0.162510 -0.176757
v -1.340663 0.462471 0.176435
v -1.340663 0.462471 -0.176757
v -1.678889 0.462471 0.176435
v -1.678889 0.462471 -0.176757
v -1.340663 -0.477698 0.176435
v -1.340663 -0.477698 -0.176757
v -1.678889 -0.477698 0.176435
v -1.678889 -0.477698 -0.176757
vt 0.520831 0.147095
vt 0.625000 0.147095
vt 0.625000 0.250000
vt 0.520831 0.250000
vt 0.520831 0.394491
vt 0.625000 0.394491
vt 0.625000 0.500000
vt 0.520831 0.500000
vt 0.520831 0.651522
vt 0.625000 0.651522
vt 0.625000 0.750000
vt 0.520831 0.750000
vt 0.520831 0.894302
vt 0.625000 0.894302
vt 0.625000 1.000000
vt 0.520831 1.000000
vt 0.269491 0.651522
vt 0.375000 0.651523
vt 0.375000 0.750000
vt 0.269491 0.750000
vt 0.769302 0.651522
vt 0.875000 0.651522
vt 0.875000 0.750000
vt 0.769302 0.750000
vt 0.730509 0.651522
vt 0.730509 0.750000
vt 0.230698 0.651522
vt 0.230698 0.750000
vt 0.625000 0.855509
vt 0.520831 0.855509
vt 0.520831 0.355698
vt 0.625000 0.355698
vt 0.125000 0.651522
vt 0.125000 0.750000
vt 0.479686 0.855509
vt 0.479686 0.894302
vt 0.479686 0.250000
vt 0.479686 0.355698
vt 0.520831 0.394491
vt 0.520831 0.355698
vt 0.479686 0.750000
vt 0.479686 1.000000
vt 0.479686 0.651522
vt 0.479686 0.394491
vt 0.479686 0.500000
vt 0.479686 0.147095
vt 0.375000 0.147095
vt 0.375000 0.250000
vt 0.375000 0.394491
vt 0.375000 0.500000
vt 0.375000 0.894302
vt 0.375000 1.000000
vt 0.375000 0.855509
vt 0.375000 0.355698
vt 0.375000 0.602905
vt 0.479686 0.602905
vt 0.375000 0.000000
vt 0.479686 0.000000
vt 0.479686 0.098478
vt 0.375000 0.098478
vt 0.520831 0.000000
vt 0.520831 0.098478
vt 0.520831 0.602905
vt 0.730509 0.602905
vt 0.769302 0.602905
vt 0.125000 0.602905
vt 0.230698 0.602905
vt 0.269491 0.602905
vt 0.625000 0.602905
vt 0.875000 0.602905
vt 0.625000 0.000000
vt 0.625000 0.098478
vt 0.269491 0.500000
vt 0.769302 0.500000
vt 0.875000 0.500000
vt 0.730509 0.500000
vt 0.230698 0.500000
vt 0.125000 0.500000
vt 0.479686 0.147095
vt 0.520831 0.147095
vt 0.479686 0.355698
vt 0.479686 0.355698
vt 0.479686 0.355698
vt 0.479686 0.355698
vt 0.479686 0.394491
vt 0.479686 0.394491
vt 0.479686 0.394491
vt 0.520831 0.355698
vt 0.520831 0.394491
vt 0.479686 0.394491
vt 0.520831 0.394491
vt 0.520831 0.394491
vt 0.520831 0.355698
vt 0.520831 0.355698
vt 0.479686 0.355698
vt 0.479686 0.355698
vt 0.479686 0.355698
vt 0.479686 0.394491
vt 0.479686 0.394491
vt 0.479686 0.394491
vt 0.479686 0.147095
vt 0.520831 0.147095
vt 0.479686 0.098478
vt 0.520831 0.098478
vt 0.479686 0.098478
vt 0.520831 0.098478
vt 0.520831 0.098478
vt 0.520831 0.147095
vt 0.479686 0.147095
vt 0.479686 0.147095
vt 0.520831 0.098478
vt 0.520831 0.147095
vt 0.479686 0.098478
vt 0.479686 0.098478
vn -1.0000 0.0000 0.0000
vn 0.0000 0.0000 -1.0000
vn 1.0000 0.0000 0.0000
vn 0.0000 0.0000 1.0000
vn 0.0000 -1.0000 0.0000
vn 0.0000 1.0000 0.0000
g Howsing_Cube.008_None
usemtl None
s off
f 47/1/1 45/2/1 4/3/1 18/4/1
f 22/5/2 10/6/2 8/7/2 19/8/2
f 41/9/3 36/10/3 6/11/3 20/12/3
f 24/13/4 14/14/4 2/15/4 17/16/4
f 38/17/5 35/18/5 5/19/5 11/20/5
f 40/21/6 34/22/6 2/23/6 14/24/6
f 36/10/6 37/25/6 12/26/6 6/11/6
f 39/27/5 38/17/5 11/20/5 16/28/5
f 20/12/4 6/11/4 12/29/4 21/30/4
f 23/31/2 15/32/2 10/6/2 22/5/2
f 18/4/2 4/3/2 15/32/2 23/31/2
f 33/33/5 39/27/5 16/28/5 1/34/5
f 37/25/6 40/21/6 14/24/6 12/26/6
f 21/30/4 12/29/4 14/14/4 24/13/4
f 28/35/4 21/30/4 24/13/4 31/36/4
f 25/37/2 18/4/2 23/31/2 30/38/2
f 23/31/6 22/5/6 58/39/6 57/40/6
f 27/41/4 20/12/4 21/30/4 28/35/4
f 31/36/4 24/13/4 17/16/4 32/42/4
f 44/43/3 41/9/3 20/12/3 27/41/3
f 29/44/2 22/5/2 19/8/2 26/45/2
f 48/46/1 47/1/1 18/4/1 25/37/1
f 49/47/1 48/46/1 25/37/1 3/48/1
f 9/49/2 29/44/2 26/45/2 7/50/2
f 35/18/3 44/43/3 27/41/3 5/19/3
f 16/51/4 31/36/4 32/42/4 1/52/4
f 5/19/4 27/41/4 28/35/4 11/53/4
f 13/54/2 30/38/2 29/44/2 9/49/2
f 3/48/2 25/37/2 30/38/2 13/54/2
f 11/53/4 28/35/4 31/36/4 16/51/4
f 46/55/3 56/56/3 44/43/3 35/18/3
f 1/57/1 32/58/1 43/59/1 33/60/1
f 32/58/1 17/61/1 42/62/1 43/59/1
f 56/56/3 55/63/3 41/9/3 44/43/3
f 51/64/6 54/65/6 40/21/6 37/25/6
f 49/66/5 53/67/5 39/27/5 33/33/5
f 53/67/5 52/68/5 38/17/5 39/27/5
f 50/69/6 51/64/6 37/25/6 36/10/6
f 54/65/6 45/70/6 34/22/6 40/21/6
f 52/68/5 46/55/5 35/18/5 38/17/5
f 55/63/3 50/69/3 36/10/3 41/9/3
f 17/61/1 2/71/1 34/72/1 42/62/1
f 19/8/3 8/7/3 50/69/3 55/63/3
f 9/73/5 7/50/5 46/55/5 52/68/5
f 15/74/6 4/75/6 45/70/6 54/65/6
f 8/7/6 10/76/6 51/64/6 50/69/6
f 13/77/5 9/73/5 52/68/5 53/67/5
f 3/78/5 13/77/5 53/67/5 49/66/5
f 10/76/6 15/74/6 54/65/6 51/64/6
f 26/45/3 19/8/3 55/63/3 56/56/3
f 7/50/3 26/45/3 56/56/3 46/55/3
f 33/60/1 43/59/1 48/46/1 49/47/1
f 47/1/2 48/46/2 82/79/2 81/80/2
f 42/62/1 34/72/1 45/2/1 47/1/1
f 60/81/1 64/82/1 73/83/1 71/84/1
f 30/38/1 23/31/1 57/40/1 60/81/1
f 22/5/3 29/44/3 59/85/3 58/39/3
f 59/85/3 29/44/3 70/86/3 72/87/3
f 64/82/2 61/88/2 62/89/2 63/90/2
f 58/39/3 59/85/3 63/90/3 62/89/3
f 60/81/1 57/40/1 61/88/1 64/82/1
f 58/39/3 62/89/3 68/91/3 66/92/3
f 65/93/6 66/92/6 68/91/6 67/94/6
f 62/89/2 61/88/2 67/94/2 68/91/2
f 61/88/1 57/40/1 65/93/1 67/94/1
f 57/40/4 58/39/4 66/92/4 65/93/4
f 71/84/1 73/83/1 77/95/1 75/96/1
f 70/86/5 69/97/5 71/84/5 72/87/5
f 30/38/1 60/81/1 71/84/1 69/97/1
f 29/44/4 30/38/4 69/97/4 70/86/4
f 63/90/3 59/85/3 72/87/3 74/98/3
f 64/82/2 63/90/2 74/98/2 73/83/2
f 76/99/5 75/96/5 77/95/5 78/100/5
f 72/87/4 71/84/4 75/96/4 76/99/4
f 74/98/3 72/87/3 76/99/3 78/100/3
f 73/83/2 74/98/2 78/100/2 77/95/2
f 81/80/2 82/79/2 86/101/2 85/102/2
f 48/46/5 43/59/5 80/103/5 82/79/5
f 43/59/4 42/62/4 79/104/4 80/103/4
f 42/62/6 47/1/6 81/80/6 79/104/6
f 84/105/1 83/106/1 85/102/1 86/101/1
f 85/102/1 83/106/1 89/107/1 90/108/1
f 86/101/2 82/79/2 92/109/2 94/110/2
f 80/103/4 79/104/4 83/106/4 84/105/4
f 87/111/6 88/112/6 90/108/6 89/107/6
f 83/106/4 79/104/4 87/111/4 89/107/4
f 79/104/3 81/80/3 88/112/3 87/111/3
f 81/80/2 85/102/2 90/108/2 88/112/2
f 92/109/5 91/113/5 93/114/5 94/110/5
f 84/105/1 86/101/1 94/110/1 93/114/1
f 80/103/4 84/105/4 93/114/4 91/113/4
f 82/79/3 80/103/3 91/113/3 92/109/3
o Barreks_Cylinder.005
v -0.453117 -0.000000 -0.892783
v 1.546883 0.000000 -0.892783
v -0.453117 -0.773173 -0.446392
v 1.546883 -0.773173 -0.446392
v -0.453117 -0.773173 0.446392
v 1.546883 -0.773173 0.446392
v -0.453117 0.000000 0.892783
v 1.546883 0.000000 0.892783
v -0.453117 0.773173 0.446391
v 1.546883 0.773173 0.446391
v -0.453117 0.773173 -0.446391
v 1.546883 0.773173 -0.446391
v 5.205938 0.000000 -1.000000
v 5.405938 -0.000000 -1.000000
v 5.205938 -0.866025 0.500000
v 5.405938 -0.866025 0.500000
v 5.205938 0.866025 0.500000
v 5.405938 0.866025 0.500000
v 2.970000 0.000000 -1.000000
v 3.170000 -0.000000 -1.000000
v 2.970000 -0.866025 0.500000
v 3.170000 -0.866025 0.500000
v 2.970000 0.866025 0.500000
v 3.170000 0.866025 0.500000
v 1.422531 0.352703 0.045532
v 6.325613 0.352703 0.045532
v 1.422531 0.175856 0.351839
v 6.325613 0.175856 0.351839
v 1.422531 0.529549 0.351839
v 6.325613 0.529549 0.351839
v 1.422531 -0.339201 0.004163
v 6.325613 -0.339202 0.004163
v 1.422531 -0.516048 0.310470
v 6.325613 -0.516048 0.310470
v 1.422531 -0.162355 0.310470
v 6.325613 -0.162355 0.310470
v 1.422531 -0.003671 -0.561971
v 6.325613 -0.003671 -0.561971
v 1.422531 -0.180517 -0.255664
v 6.325613 -0.180517 -0.255664
v 1.422531 0.173176 -0.255664
v 6.325613 0.173176 -0.255664
vt 1.000000 0.500000
vt 1.000000 1.000000
vt 0.833333 1.000000
vt 0.833333 0.500000
vt 0.666667 1.000000
vt 0.666667 0.500000
vt 0.500000 1.000000
vt 0.500000 0.500000
vt 0.333333 1.000000
vt 0.333333 0.500000
vt 0.457846 0.370000
vt 0.250000 0.490000
vt 0.042154 0.370000
vt 0.042154 0.130000
vt 0.250000 0.010000
vt 0.457846 0.130000
vt 0.166667 1.000000
vt 0.166667 0.500000
vt -0.000000 1.000000
vt -0.000000 0.500000
vt 0.750000 0.490000
vt 0.957846 0.370000
vt 0.957846 0.130000
vt 0.750000 0.010000
vt 0.542154 0.130000
vt 0.542154 0.370000
vt 1.000000 0.500000
vt 1.000000 1.000000
vt 0.666667 1.000000
vt 0.666667 0.500000
vt 0.333333 1.000000
vt 0.333333 0.500000
vt 0.457846 0.130000
vt 0.250000 0.490000
vt 0.042154 0.130000
vt -0.000000 1.000000
vt -0.000000 0.500000
vt 0.750000 0.490000
vt 0.957846 0.130000
vt 0.542154 0.130000
vt 1.000000 0.500000
vt 1.000000 1.000000
vt 0.666667 1.000000
vt 0.666667 0.500000
vt 0.333333 1.000000
vt 0.333333 0.500000
vt 0.457846 0.130000
vt 0.250000 0.490000
vt 0.042154 0.130000
vt -0.000000 1.000000
vt -0.000000 0.500000
vt 0.750000 0.490000
vt 0.957846 0.130000
vt 0.542154 0.130000
vt 1.000000 0.500000
vt 1.000000 1.000000
vt 0.666667 1.000000
vt 0.666667 0.500000
vt 0.333333 1.000000
vt 0.333333 0.500000
vt 0.457846 0.130000
vt 0.250000 0.490000
vt 0.042154 0.130000
vt -0.000000 1.000000
vt -0.000000 0.500000
vt 0.750000 0.490000
vt 0.957846 0.130000
vt 0.542154 0.130000
vt 1.000000 0.500000
vt 1.000000 1.000000
vt 0.666667 1.000000
vt 0.666667 0.500000
vt 0.333333 1.000000
vt 0.333333 0.500000
vt 0.457846 0.130000
vt 0.250000 0.490000
vt 0.042154 0.130000
vt -0.000000 1.000000
vt -0.000000 0.500000
vt 0.750000 0.490000
vt 0.957846 0.130000
vt 0.542154 0.130000
vt 1.000000 0.500000
vt 1.000000 1.000000
vt 0.666667 1.000000
vt 0.666667 0.500000
vt 0.333333 1.000000
vt 0.333333 0.500000
vt 0.457846 0.130000
vt 0.250000 0.490000
vt 0.042154 0.130000
vt -0.000000 1.000000
vt -0.000000 0.500000
vt 0.750000 0.490000
vt 0.957846 0.130000
vt 0.542154 0.130000
vn 0.0000 -0.5000 -0.8660
vn 0.0000 -1.0000 0.0000
vn 0.0000 -0.5000 0.8660
vn -0.0000 0.5000 0.8660
vn 1.0000 0.0000 0.0000
vn -0.0000 1.0000 0.0000
vn -0.0000 0.5000 -0.8660
vn -1.0000 -0.0000 0.0000
vn -0.0000 -0.8660 -0.5000
vn 0.0000 0.0000 1.0000
vn 0.0000 0.8660 -0.5000
g Barreks_Cylinder.005_None
usemtl None
s off
f 95/115/7 96/116/7 98/117/7 97/118/7
f 97/118/8 98/117/8 100/119/8 99/120/8
f 99/120/9 100/119/9 102/121/9 101/122/9
f 101/122/10 102/121/10 104/123/10 103/124/10
f 98/125/11 96/126/11 106/127/11 104/128/11 102/129/11 100/130/11
f 103/124/12 104/123/12 106/131/12 105/132/12
f 105/132/13 106/131/13 96/133/13 95/134/13
f 95/135/14 97/136/14 99/137/14 101/138/14 103/139/14 105/140/14
f 107/141/15 108/142/15 110/143/15 109/144/15
f 109/144/16 110/143/16 112/145/16 111/146/16
f 110/147/11 108/148/11 112/149/11
f 111/146/17 112/145/17 108/150/17 107/151/17
f 107/152/14 109/153/14 111/154/14
f 113/155/15 114/156/15 116/157/15 115/158/15
f 115/158/16 116/157/16 118/159/16 117/160/16
f 116/161/11 114/162/11 118/163/11
f 117/160/17 118/159/17 114/164/17 113/165/17
f 113/166/14 115/167/14 117/168/14
f 119/169/15 120/170/15 122/171/15 121/172/15
f 121/172/16 122/171/16 124/173/16 123/174/16
f 122/175/11 120/176/11 124/177/11
f 123/174/17 124/173/17 120/178/17 119/179/17
f 119/180/14 121/181/14 123/182/14
f 125/183/15 126/184/15 128/185/15 127/186/15
f 127/186/16 128/185/16 130/187/16 129/188/16
f 128/189/11 126/190/11 130/191/11
f 129/188/17 130/187/17 126/192/17 125/193/17
f 125/194/14 127/195/14 129/196/14
f 131/197/15 132/198/15 134/199/15 133/200/15
f 133/200/16 134/199/16 136/201/16 135/202/16
f 134/203/11 132/204/11 136/205/11
f 135/202/17 136/201/17 132/206/17 131/207/17
f 131/208/14 133/209/14 135/210/14
o Stand_Cube.009
v -0.278663 -6.477735 0.278663
v -0.278663 -0.144931 0.278663
v -0.278663 -6.477735 -0.278663
v -0.278663 -0.144931 -0.278663
v 0.278663 -6.477735 0.278663
v 0.278663 -0.144931 0.278663
v 0.278663 -6.477735 -0.278663
v 0.278663 -0.144931 -0.278663
vt 0.375000 0.000000
vt 0.625000 0.000000
vt 0.625000 0.250000
vt 0.375000 0.250000
vt 0.625000 0.500000
vt 0.375000 0.500000
vt 0.625000 0.750000
vt 0.375000 0.750000
vt 0.625000 1.000000
vt 0.375000 1.000000
vt 0.125000 0.500000
vt 0.125000 0.750000
vt 0.875000 0.500000
vt 0.875000 0.750000
vn -1.0000 0.0000 0.0000
vn 0.0000 0.0000 -1.0000
vn 1.0000 0.0000 0.0000
vn 0.0000 0.0000 1.0000
vn 0.0000 -1.0000 0.0000
vn 0.0000 1.0000 0.0000
g Stand_Cube.009_None
usemtl None
s off
f 137/211/18 138/212/18 140/213/18 139/214/18
f 139/214/19 140/213/19 144/215/19 143/216/19
f 143/216/20 144/215/20 142/217/20 141/218/20
f 141/218/21 142/217/21 138/219/21 137/220/21
f 139/221/22 143/216/22 141/218/22 137/222/22
f 144/215/23 140/223/23 138/224/23 142/217/23
